Coordinates
version=1
nRows=19
nColumns=24
inDegrees=yes

Units are S.I. units (second, meters, Newtons, ...)
Angles are in degrees.

endheader
time	pelvis_tilt	pelvis_list	pelvis_rotation	pelvis_tx	pelvis_ty	pelvis_tz	hip_flexion_r	hip_adduction_r	hip_rotation_r	knee_angle_r	ankle_angle_r	subtalar_angle_r	mtp_angle_r	hip_flexion_l	hip_adduction_l	hip_rotation_l	knee_angle_l	ankle_angle_l	subtalar_angle_l	mtp_angle_l	lumbar_extension	lumbar_bending	lumbar_rotation
      1.10850000	     -9.49482197	      2.05570663	     -4.36460704	      0.14970147	      0.98315254	      0.34616709	     30.79651562	     -0.67125120	     -0.79268097	    -66.88931055	     -7.03879412	      6.14688296	    -41.59649065	     18.14624513	      6.12809165	     -6.42661241	     -9.14708624	    -19.34256765	    -11.10272332	     -5.64666793	     23.80575655	     -1.79305036	      3.35969555
      1.11266667	     -9.50040667	      1.99629693	     -4.35954454	      0.15472637	      0.98373368	      0.34593103	     31.42209168	     -0.48448875	     -0.60680508	    -66.71629676	     -6.54868372	      5.79895547	    -41.59684194	     17.70793542	      6.13474740	     -6.31169051	     -8.94204543	    -19.20868077	    -11.10630353	     -5.64973510	     23.78593262	     -1.65146432	      3.27725343
      1.11683333	     -9.51218038	      1.91548671	     -4.33381040	      0.15971996	      0.98430475	      0.34577768	     32.02348553	     -0.26515303	     -0.45271342	    -66.48613998	     -5.92094423	      5.35795062	    -41.59578382	     17.29038761	      6.10924430	     -6.23357417	     -8.77200720	    -19.04985510	    -11.14061459	     -5.65471204	     23.77053489	     -1.56987677	      3.20639539
      1.12100000	     -9.52364548	      1.82372611	     -4.30357746	      0.16469928	      0.98485430	      0.34561665	     32.59972904	     -0.03493167	     -0.29996107	    -66.17075124	     -5.34638960	      4.95453512	    -41.59716989	     16.87500642	      6.07164689	     -6.15533562	     -8.60549388	    -18.90131836	    -11.16815263	     -5.66085933	     23.74173775	     -1.47886468	      3.13724542
      1.12516667	     -9.54357727	      1.73845843	     -4.27698013	      0.16966733	      0.98535856	      0.34547267	     33.16611012	      0.19234698	     -0.14121992	    -65.78421116	     -4.80283698	      4.56262629	    -41.60052007	     16.46725914	      6.04153746	     -6.06487095	     -8.43161701	    -18.75524354	    -11.20350088	     -5.66809178	     23.72506704	     -1.39318581	      3.07183364
      1.12933333	     -9.55952285	      1.64998097	     -4.25352395	      0.17464844	      0.98586139	      0.34534208	     33.69842012	      0.42597874	      0.02337169	    -65.31285695	     -4.29785292	      4.18784000	    -41.60521691	     16.05059243	      6.00572711	     -5.97331185	     -8.24974162	    -18.61536700	    -11.24649658	     -5.67599753	     23.70798436	     -1.30319289	      3.00992010
      1.13350000	     -9.57686390	      1.56004500	     -4.23323620	      0.17961402	      0.98633221	      0.34523507	     34.20960556	      0.66696275	      0.18984429	    -64.77375923	     -3.79947589	      3.79642226	    -41.61257607	     15.63580383	      5.96823573	     -5.87993213	     -8.06599122	    -18.47084047	    -11.29773358	     -5.68579383	     23.68829326	     -1.21092647	      2.94742014
      1.13766667	     -9.59745085	      1.47686668	     -4.21159896	      0.18456293	      0.98675641	      0.34513083	     34.70283628	      0.89900299	      0.35979202	    -64.16684974	     -3.33472069	      3.40374648	    -41.62390242	     15.22527525	      5.93628282	     -5.78648546	     -7.88177012	    -18.33022058	    -11.35164312	     -5.69792545	     23.66527702	     -1.13019756	      2.88794546
      1.14183333	     -9.61866852	      1.39534744	     -4.20086308	      0.18953539	      0.98715642	      0.34507345	     35.16782436	      1.13789156	      0.54163504	    -63.47970827	     -2.92948801	      3.04402200	    -41.63553876	     14.80693229	      5.90383852	     -5.68170620	     -7.68235072	    -18.19700632	    -11.42081627	     -5.70958507	     23.65590811	     -1.04647971	      2.83365916
      1.14600000	     -9.64844287	      1.31567906	     -4.18699577	      0.19450221	      0.98751401	      0.34502018	     35.61436064	      1.37345127	      0.72087366	    -62.72276619	     -2.54318025	      2.66784392	    -41.64946377	     14.39827277	      5.87330644	     -5.57885767	     -7.48240880	    -18.06553040	    -11.50117515	     -5.72277559	     23.65050652	     -0.96377561	      2.78053751
      1.15016667	     -9.67588996	      1.23770352	     -4.17445086	      0.19946710	      0.98783598	      0.34499316	     36.03292030	      1.60997610	      0.90001400	    -61.89905446	     -2.19102344	      2.28176472	    -41.66647965	     13.98480814	      5.84521153	     -5.47272958	     -7.27582493	    -17.93354783	    -11.59721936	     -5.73784551	     23.64255865	     -0.88738877	      2.72850017
      1.15433333	     -9.64483948	      1.12169715	     -4.12328162	      0.20442167	      0.98827059	      0.34494399	     36.34270277	      1.85789858	      1.00130164	    -60.98427093	     -1.88313979	      1.69020402	    -41.71587390	     13.51724242	      5.78209142	     -5.38383169	     -7.09663418	    -17.78504987	    -11.70951141	     -5.77693640	     23.49035097	     -0.76961365	      2.64025829
      1.15850000	     -9.68873340	      1.07378438	     -4.14400357	      0.20940235	      0.98848052	      0.34496994	     36.72972205	      2.07683252	      1.24132612	    -60.01658292	     -1.66506909	      1.43388611	    -41.73630518	     13.10282443	      5.78401928	     -5.25003289	     -6.84449407	    -17.68834674	    -11.79655335	     -5.79294454	     23.55108398	     -0.74788402	      2.60342153
      1.16266667	     -9.65991883	      0.96099787	     -4.10104100	      0.21440318	      0.98885046	      0.34494446	     36.97815373	      2.32050905	      1.35091259	    -58.94359734	     -1.49528827	      0.83113047	    -41.80100003	     12.62350095	      5.72688445	     -5.14920958	     -6.64217379	    -17.55956630	    -11.97657236	     -5.84448746	     23.43057273	     -0.58738685	      2.50610544
      1.16683333	     -9.72516433	      0.92475812	     -4.12346424	      0.21936906	      0.98893612	      0.34503299	     37.33576634	      2.52966224	      1.59495509	    -57.85825947	     -1.30769906	      0.60010346	    -41.82343733	     12.23342075	      5.73822962	     -5.01263454	     -6.38888967	    -17.47236478	    -12.08278454	     -5.86267254	     23.51007903	     -0.61444092	      2.48214053
      1.17100000	     -9.77170795	      0.86645340	     -4.12811062	      0.22437336	      0.98904704	      0.34508271	     37.62876427	      2.74166115	      1.79351613	    -56.69119604	     -1.14134524	      0.25189746	    -41.85340793	     11.82244932	      5.73303014	     -4.89620806	     -6.14684658	    -17.36177871	    -12.26591955	     -5.88734819	     23.56951188	     -0.54629241	      2.43471294
      1.17516667	     -9.82005215	      0.80382614	     -4.12215464	      0.22938947	      0.98913425	      0.34515401	     37.88888684	      2.95153879	      1.97038265	    -55.45179083	     -1.03141052	     -0.10933673	    -41.88612726	     11.41024263	      5.72467740	     -4.76346496	     -5.89831766	    -17.26724290	    -12.46576758	     -5.91404110	     23.60234382	     -0.49706054	      2.38890066
      1.17933333	     -9.75945167	      0.68076903	     -4.07282216	      0.23439994	      0.98942958	      0.34511589	     37.97795881	      3.17279522	      2.04603673	    -54.06971422	     -1.21796900	     -0.75307794	    -41.97374970	     10.88182660	      5.67235336	     -4.59847223	     -5.66224052	    -17.21397704	    -12.79522657	     -5.98626229	     23.38377883	     -0.29299517	      2.26163641
      1.18350000	     -9.85621695	      0.66740144	     -4.08694022	      0.23930222	      0.98929544	      0.34532872	     38.26068211	      3.35230564	      2.29043565	    -52.75903897	     -1.05427407	     -0.93363868	    -41.99560472	     10.53897364	      5.70023566	     -4.47755484	     -5.42714642	    -17.14493966	    -12.91959949	     -6.00601528	     23.50238457	     -0.41021622	      2.25663729
